<?xml version="1.0" encoding="UTF-8" standalone="no"?>
<!-- Created with Inkscape (http://www.inkscape.org/) -->

<svg
   width="186.48436mm"
   height="149.27019mm"
   viewBox="0 0 186.48436 149.27019"
   version="1.1"
   id="svg1"
   xmlns:inkscape="http://www.inkscape.org/namespaces/inkscape"
   xmlns:sodipodi="http://sodipodi.sourceforge.net/DTD/sodipodi-0.dtd"
   xmlns="http://www.w3.org/2000/svg"
   xmlns:svg="http://www.w3.org/2000/svg">
  <sodipodi:namedview
     id="namedview1"
     pagecolor="#ffffff"
     bordercolor="#666666"
     borderopacity="1.0"
     inkscape:showpageshadow="2"
     inkscape:pageopacity="0.0"
     inkscape:pagecheckerboard="0"
     inkscape:deskcolor="#d1d1d1"
     inkscape:document-units="mm"
     showguides="true"
     inkscape:zoom="0.74475309"
     inkscape:cx="330.98218"
     inkscape:cy="504.86531"
     inkscape:window-width="1416"
     inkscape:window-height="1000"
     inkscape:window-x="495"
     inkscape:window-y="0"
     inkscape:window-maximized="0"
     inkscape:current-layer="layer1">
    <sodipodi:guide
       position="108.07424,82.346816"
       orientation="0,-1"
       id="guide4"
       inkscape:locked="false" />
    <sodipodi:guide
       position="93.153186,227.64945"
       orientation="1,0"
       id="guide5"
       inkscape:locked="false" />
  </sodipodi:namedview>
  <defs
     id="defs1" />
  <g
     inkscape:label="Camada 1"
     inkscape:groupmode="layer"
     id="layer1"
     transform="translate(-11.294184,-33.320498)">
    <ellipse
       style="fill:#1a1a1a;stroke:#000000;stroke-width:1.16624"
       id="path2"
       cx="41.565792"
       cy="128.60524"
       rx="29.688488"
       ry="37.149014"
       inkscape:export-filename="duck.svg"
       inkscape:export-xdpi="96"
       inkscape:export-ydpi="96" />
    <ellipse
       style="fill:#1a1a1a;stroke:#000000;stroke-width:1.16624"
       id="ellipse2"
       cx="167.50694"
       cy="128.60524"
       rx="29.688488"
       ry="37.149014" />
    <ellipse
       style="fill:#1a1a1a;stroke:#000000;stroke-width:1.25053"
       id="ellipse1"
       cx="104.60033"
       cy="129.58223"
       rx="78.495026"
       ry="52.383183" />
    <ellipse
       style="fill:#ffffff;stroke:#000000;stroke-width:0.858999"
       id="path1"
       cx="105.52917"
       cy="77.092102"
       rx="44.763157"
       ry="43.342106" />
    <g
       id="g35">
      <rect
         style="fill:#ffffff;fill-rule:evenodd;stroke-width:0.0984634"
         id="rect5"
         width="3.7746708"
         height="8.3930912"
         x="102.58224"
         y="126.07401" />
      <rect
         style="fill:#ffffff;fill-rule:evenodd;stroke-width:0.365357"
         id="rect6"
         width="6.4835525"
         height="2.9753289"
         x="101.29441"
         y="134.91119" />
      <rect
         style="fill:#ffffff;fill-rule:evenodd;stroke-width:0.0984634"
         id="rect7"
         width="3.7746708"
         height="8.3930912"
         x="102.58224"
         y="139.30302" />
      <rect
         style="fill:#ffffff;fill-rule:evenodd;stroke-width:0.365357"
         id="rect8"
         width="6.4835525"
         height="2.9753289"
         x="101.29441"
         y="148.14018" />
      <rect
         style="fill:#ffffff;fill-rule:evenodd;stroke-width:0.0984634"
         id="rect9"
         width="3.7746708"
         height="8.3930912"
         x="102.58224"
         y="152.53201" />
      <rect
         style="fill:#ffffff;fill-rule:evenodd;stroke-width:0.365357"
         id="rect10"
         width="6.4835525"
         height="2.9753289"
         x="101.29441"
         y="161.36917" />
      <rect
         style="fill:#ffffff;fill-rule:evenodd;stroke-width:0.0984634"
         id="rect11"
         width="3.7746708"
         height="8.3930912"
         x="102.58224"
         y="165.23184" />
      <rect
         style="fill:#ffffff;fill-rule:evenodd;stroke-width:0.365357"
         id="rect12"
         width="6.4835525"
         height="2.9753289"
         x="101.29441"
         y="174.069" />
      <path
         id="rect13"
         style="fill:#ffffff;fill-rule:evenodd;stroke-width:0.264583"
         d="m 109.95395,129.67105 c 22.86883,1.01409 42.67844,-2.11262 59.32895,-18.29605 -6.95615,19.96219 -43.78624,29.34936 -59.32895,28.59868 z"
         sodipodi:nodetypes="cccc" />
      <path
         id="path13"
         style="fill:#ffffff;fill-rule:evenodd;stroke-width:0.264583"
         d="m 109.95395,144.48781 c 22.86883,1.01409 42.67844,-2.11262 59.32895,-18.29605 -6.95615,19.96219 -43.78624,29.34936 -59.32895,28.59868 z"
         sodipodi:nodetypes="cccc" />
      <path
         id="path14"
         style="fill:#ffffff;fill-rule:evenodd;stroke-width:0.264583"
         d="m 109.95395,160.36291 c 22.86883,1.01409 42.67844,-2.11262 59.32895,-18.29605 -6.95615,19.96219 -43.78624,29.34936 -59.32895,28.59868 z"
         sodipodi:nodetypes="cccc" />
      <path
         id="path15"
         style="fill:#ffffff;fill-rule:evenodd;stroke-width:0.264583"
         d="m 109.95395,129.67105 c 22.86883,1.01409 42.67844,-2.11262 59.32895,-18.29605 -6.95615,19.96219 -43.78624,29.34936 -59.32895,28.59868 z"
         sodipodi:nodetypes="cccc" />
      <path
         id="path16"
         style="fill:#ffffff;fill-rule:evenodd;stroke-width:0.264583"
         d="m 109.95395,144.48781 c 22.86883,1.01409 42.67844,-2.11262 59.32895,-18.29605 -6.95615,19.96219 -43.78624,29.34936 -59.32895,28.59868 z"
         sodipodi:nodetypes="cccc" />
      <path
         id="path17"
         style="fill:#ffffff;fill-rule:evenodd;stroke-width:0.264583"
         d="m 109.95395,160.36291 c 22.86883,1.01409 42.67844,-2.11262 59.32895,-18.29605 -6.95615,19.96219 -43.78624,29.34936 -59.32895,28.59868 z"
         sodipodi:nodetypes="cccc" />
      <path
         id="path18"
         style="fill:#ffffff;fill-rule:evenodd;stroke-width:0.264583"
         d="m 98.903299,129.67105 c -22.868621,1.01409 -42.67813,-2.11262 -59.328614,-18.29605 6.95615,19.96219 43.786061,29.34936 59.328614,28.59868 z"
         sodipodi:nodetypes="cccc" />
      <path
         id="path19"
         style="fill:#ffffff;fill-rule:evenodd;stroke-width:0.264583"
         d="m 98.903299,144.48781 c -22.868621,1.01409 -42.67813,-2.11262 -59.328614,-18.29605 6.95615,19.96219 43.786061,29.34936 59.328614,28.59868 z"
         sodipodi:nodetypes="cccc" />
      <path
         id="path20"
         style="fill:#ffffff;fill-rule:evenodd;stroke-width:0.264583"
         d="m 98.903299,160.36291 c -22.868621,1.01409 -42.67813,-2.11262 -59.328614,-18.29605 6.95615,19.96219 43.786061,29.34936 59.328614,28.59868 z"
         sodipodi:nodetypes="cccc" />
    </g>
    <g
       id="g61">
      <path
         id="rect4"
         style="fill:#1a1a1a;fill-rule:evenodd;stroke:#000000;stroke-width:0.100556"
         d="m 98.317156,86.34032 c 3.040204,-8.363859 8.612444,-8.564423 12.483584,-0.492442 2.26503,5.149818 5.279,9.276977 15.50207,14.105804 5.14635,2.463628 3.86952,14.490358 -21.97184,14.347648 -26.654934,0.14169 -26.842992,-12.63312 -21.092836,-14.55116 9.070392,-3.589435 12.525612,-6.419606 15.079022,-13.40985 z"
         sodipodi:nodetypes="cccccc" />
      <path
         id="rect35"
         style="fill:#ffffff;fill-rule:evenodd;stroke:#ffffff;stroke-width:0.265278"
         d="m 80.136009,102.80762 c 16.181814,5.12893 32.363631,5.74944 48.545441,0 v 0.56452 c -18.00844,6.15283 -33.702968,4.51146 -48.545441,0 z"
         sodipodi:nodetypes="ccccc" />
      <rect
         style="fill:#ffffff;fill-rule:evenodd;stroke-width:0.264583"
         id="rect36"
         width="0.56522024"
         height="4.2705531"
         x="106.10132"
         y="76.583794"
         transform="rotate(15.080419)" />
      <rect
         style="fill:#ffffff;fill-rule:evenodd;stroke-width:0.264583"
         id="rect37"
         width="0.56522024"
         height="4.2705531"
         x="107.8693"
         y="76.627739"
         transform="rotate(15.080419)" />
      <rect
         style="fill:#ffffff;fill-rule:evenodd;stroke-width:0.264583"
         id="rect38"
         width="0.56522024"
         height="4.2705531"
         x="109.66996"
         y="76.792969"
         transform="rotate(15.080419)" />
      <rect
         style="fill:#ffffff;fill-rule:evenodd;stroke-width:0.264583"
         id="rect39"
         width="0.56522024"
         height="4.2705531"
         x="110.05077"
         y="78.53212"
         transform="rotate(14.15108)" />
      <rect
         style="fill:#ffffff;fill-rule:evenodd;stroke-width:0.264583"
         id="rect40"
         width="0.56522024"
         height="4.2705531"
         x="110.32109"
         y="80.550346"
         transform="rotate(13.079581)" />
      <rect
         style="fill:#ffffff;fill-rule:evenodd;stroke-width:0.264583"
         id="rect41"
         width="0.56522024"
         height="4.2705531"
         x="110.84035"
         y="82.60218"
         transform="rotate(12.092112)" />
      <rect
         style="fill:#ffffff;fill-rule:evenodd;stroke-width:0.264583"
         id="rect42"
         width="0.56522024"
         height="4.2705531"
         x="108.98229"
         y="87.342346"
         transform="rotate(9.6796072)" />
      <rect
         style="fill:#ffffff;fill-rule:evenodd;stroke-width:0.264583"
         id="rect43"
         width="0.56522024"
         height="4.2705531"
         x="109.77078"
         y="88.349846"
         transform="rotate(9.0308969)" />
      <rect
         style="fill:#ffffff;fill-rule:evenodd;stroke-width:0.264583"
         id="rect44"
         width="0.56522024"
         height="4.2705531"
         x="109.11002"
         y="91.318901"
         transform="rotate(7.473908)" />
      <rect
         style="fill:#ffffff;fill-rule:evenodd;stroke-width:0.264583"
         id="rect45"
         width="0.56522024"
         height="4.2705531"
         x="104.59354"
         y="98.337311"
         transform="rotate(3.6906417)" />
      <rect
         style="fill:#ffffff;fill-rule:evenodd;stroke-width:0.264583"
         id="rect46"
         width="0.56522024"
         height="4.2705531"
         x="106.36048"
         y="98.412132"
         transform="rotate(3.6906417)" />
      <rect
         style="fill:#ffffff;fill-rule:evenodd;stroke-width:0.264583"
         id="rect47"
         width="0.56522024"
         height="4.2705531"
         x="108.19009"
         y="98.482918"
         transform="rotate(3.6906417)" />
      <rect
         style="fill:#ffffff;fill-rule:evenodd;stroke-width:0.264583"
         id="rect48"
         width="0.56522024"
         height="4.2705531"
         x="105.63515"
         y="102.90415"
         transform="rotate(1.3217365)" />
      <rect
         style="fill:#ffffff;fill-rule:evenodd;stroke-width:0.264583"
         id="rect49"
         width="0.56522024"
         height="4.2705531"
         x="-95.722252"
         y="130.96614"
         transform="matrix(-0.9655616,0.26017454,0.26017454,0.9655616,0,0)" />
      <rect
         style="fill:#ffffff;fill-rule:evenodd;stroke-width:0.264583"
         id="rect50"
         width="0.56522024"
         height="4.2705531"
         x="-93.954277"
         y="131.01009"
         transform="matrix(-0.9655616,0.26017454,0.26017454,0.9655616,0,0)" />
      <rect
         style="fill:#ffffff;fill-rule:evenodd;stroke-width:0.264583"
         id="rect51"
         width="0.56522024"
         height="4.2705531"
         x="-92.153618"
         y="131.17532"
         transform="matrix(-0.9655616,0.26017454,0.26017454,0.9655616,0,0)" />
      <rect
         style="fill:#ffffff;fill-rule:evenodd;stroke-width:0.264583"
         id="rect52"
         width="0.56522024"
         height="4.2705531"
         x="-92.628296"
         y="129.63361"
         transform="matrix(-0.96965444,0.24447957,0.24447957,0.96965444,0,0)" />
      <rect
         style="fill:#ffffff;fill-rule:evenodd;stroke-width:0.264583"
         id="rect53"
         width="0.56522024"
         height="4.2705531"
         x="-93.278183"
         y="127.85287"
         transform="matrix(-0.97405668,0.22630419,0.22630419,0.97405668,0,0)" />
      <rect
         style="fill:#ffffff;fill-rule:evenodd;stroke-width:0.264583"
         id="rect54"
         width="0.56522024"
         height="4.2705531"
         x="-93.543869"
         y="126.38892"
         transform="matrix(-0.97781209,0.20948395,0.20948395,0.97781209,0,0)" />
      <rect
         style="fill:#ffffff;fill-rule:evenodd;stroke-width:0.264583"
         id="rect55"
         width="0.56522024"
         height="4.2705531"
         x="-97.063881"
         y="122.48697"
         transform="matrix(-0.98576338,0.16813854,0.16813854,0.98576338,0,0)" />
      <rect
         style="fill:#ffffff;fill-rule:evenodd;stroke-width:0.264583"
         id="rect56"
         width="0.56522024"
         height="4.2705531"
         x="-96.660149"
         y="121.15938"
         transform="matrix(-0.98760384,0.15696706,0.15696706,0.98760384,0,0)" />
      <rect
         style="fill:#ffffff;fill-rule:evenodd;stroke-width:0.264583"
         id="rect57"
         width="0.56522024"
         height="4.2705531"
         x="-98.136139"
         y="118.50743"
         transform="matrix(-0.9915042,0.13007468,0.13007468,0.9915042,0,0)" />
      <rect
         style="fill:#ffffff;fill-rule:evenodd;stroke-width:0.264583"
         id="rect58"
         width="0.56522024"
         height="4.2705531"
         x="-103.99492"
         y="111.79191"
         transform="matrix(-0.99792615,0.06436931,0.06436931,0.99792615,0,0)" />
      <rect
         style="fill:#ffffff;fill-rule:evenodd;stroke-width:0.264583"
         id="rect59"
         width="0.56522024"
         height="4.2705531"
         x="-102.22796"
         y="111.86672"
         transform="matrix(-0.99792615,0.06436931,0.06436931,0.99792615,0,0)" />
      <rect
         style="fill:#ffffff;fill-rule:evenodd;stroke-width:0.264583"
         id="rect60"
         width="0.56522024"
         height="4.2705531"
         x="-100.39836"
         y="111.93751"
         transform="matrix(-0.99792615,0.06436931,0.06436931,0.99792615,0,0)" />
      <rect
         style="fill:#ffffff;fill-rule:evenodd;stroke-width:0.264583"
         id="rect61"
         width="0.56522024"
         height="4.2705531"
         x="-103.33115"
         y="107.72557"
         transform="matrix(-0.99973393,0.02306661,0.02306661,0.99973393,0,0)" />
    </g>
    <path
       id="rect62"
       style="fill-rule:evenodd;stroke:#000000;stroke-width:0.264583"
       transform="rotate(19.905668)"
       d="m 106.19228,25.340649 c 3.09118,8.975636 -3.77736,7.530579 -4.14102,22.101791 -1.12481,6.042993 -11.673064,7.646879 -14.332663,1.523207 C 79.203596,28.313239 100.21669,10.155034 106.19228,25.340649 Z"
       sodipodi:nodetypes="cccc" />
    <path
       id="path62"
       style="fill-rule:evenodd;stroke:#000000;stroke-width:0.264583"
       d="m 119.22555,59.982216 c 0.14946,9.491844 6.11566,5.794573 11.41872,19.371404 3.1151,5.298984 13.57929,3.215654 13.99505,-3.447677 0.97469,-22.317642 -24.96548,-32.236593 -25.41377,-15.923727 z"
       sodipodi:nodetypes="cccc" />
  </g>
</svg>
