<?xml version="1.0" standalone="no"?>
<!DOCTYPE svg PUBLIC "-//W3C//DTD SVG 20010904//EN"
 "http://www.w3.org/TR/2001/REC-SVG-20010904/DTD/svg10.dtd">
<svg version="1.0" xmlns="http://www.w3.org/2000/svg"
 width="705.000000pt" height="705.000000pt" viewBox="0 0 705.000000 705.000000"
 preserveAspectRatio="xMidYMid meet">
<metadata>
Created by potrace 1.14, written by Peter Selinger 2001-2017
</metadata>
<g transform="translate(0.000000,705.000000) scale(0.100000,-0.100000)"
fill="#000000" stroke="none">
<path d="M3398 6345 c-3 -3 -30 -8 -59 -10 -30 -2 -79 -9 -109 -15 -30 -6 -64
-13 -75 -15 -53 -11 -189 -56 -266 -88 -85 -35 -209 -96 -219 -107 -3 -3 -29
-21 -58 -38 -30 -18 -59 -37 -65 -42 -7 -5 -41 -33 -77 -61 -71 -57 -221 -205
-260 -258 -14 -19 -31 -40 -37 -47 -7 -7 -13 -17 -13 -22 0 -6 -3 -12 -7 -14
-12 -5 -53 -66 -53 -78 0 -5 -4 -10 -9 -10 -5 0 -11 -8 -14 -17 -4 -10 -22
-47 -42 -82 -19 -35 -35 -70 -35 -77 0 -8 -4 -14 -9 -14 -5 0 -11 -10 -14 -22
-3 -13 -19 -60 -35 -106 -29 -79 -59 -193 -68 -257 -2 -16 -8 -54 -12 -82 -5
-29 -8 -119 -6 -200 2 -145 5 -176 17 -258 l6 -40 -132 -64 c-73 -35 -156 -79
-185 -97 -29 -19 -55 -34 -59 -34 -3 0 -21 -12 -40 -26 -35 -26 -53 -28 -123
-10 -95 25 -289 25 -396 0 -313 -70 -588 -300 -763 -636 -26 -51 -50 -102 -54
-113 -3 -11 -15 -45 -26 -75 -18 -47 -35 -102 -57 -185 -3 -11 -13 -72 -23
-135 -21 -130 -22 -419 -1 -525 6 -33 13 -73 15 -89 2 -15 7 -36 10 -46 3 -10
8 -27 10 -37 8 -40 48 -161 67 -203 11 -24 21 -49 22 -56 1 -6 9 -23 19 -37 9
-15 17 -33 17 -42 0 -8 3 -15 8 -15 4 0 19 -24 34 -53 59 -111 220 -297 323
-372 22 -16 42 -31 45 -34 18 -20 220 -121 242 -121 8 0 18 -3 22 -7 3 -4 12
-8 19 -9 7 -2 23 -6 37 -9 111 -29 316 -38 391 -18 25 7 40 7 51 -1 171 -121
317 -201 558 -309 98 -43 380 -144 422 -151 7 -1 19 -5 26 -9 6 -5 12 -6 12
-3 0 3 18 -1 40 -9 22 -8 40 -12 40 -10 0 3 12 0 28 -6 15 -6 36 -13 47 -15
11 -2 31 -6 45 -9 14 -4 36 -8 50 -11 14 -2 45 -9 70 -14 25 -5 59 -12 75 -15
17 -2 41 -7 55 -10 14 -3 45 -7 70 -10 25 -3 61 -7 80 -9 189 -26 271 -30 545
-30 264 -1 393 6 565 30 25 3 58 7 73 9 78 11 113 16 127 20 8 2 30 7 48 10
27 4 127 25 192 40 59 13 117 28 130 32 8 3 21 7 28 9 55 11 352 114 417 144
11 5 43 19 70 30 72 32 279 136 323 164 20 13 41 23 46 24 5 0 12 4 15 9 3 4
39 30 80 57 73 48 75 48 130 41 77 -10 242 -12 248 -2 2 4 8 5 12 3 10 -6 125
19 192 42 51 18 79 31 119 54 8 4 26 14 40 21 90 44 272 203 340 296 14 19 30
39 36 45 44 46 166 284 205 401 7 22 14 45 15 50 1 6 11 44 22 85 11 41 23 95
26 120 4 25 9 56 12 70 3 14 6 104 8 200 3 157 -5 261 -28 373 -3 15 -8 39
-11 55 -8 40 -55 192 -70 227 -94 219 -178 349 -315 485 -167 168 -367 273
-580 306 -86 13 -246 8 -320 -9 -79 -19 -89 -19 -119 2 -16 12 -34 21 -40 21
-6 0 -11 5 -11 10 0 6 -5 10 -11 10 -6 0 -23 9 -39 20 -15 11 -79 45 -141 76
-63 32 -115 58 -117 60 -2 1 2 28 7 60 28 155 31 413 7 526 -3 13 -7 37 -10
53 -5 36 -42 173 -56 209 -5 14 -7 26 -5 26 3 0 -4 17 -15 38 -10 20 -20 43
-22 51 -7 32 -95 192 -154 281 -151 226 -344 401 -593 538 -52 29 -97 52 -100
52 -4 0 -31 11 -59 25 -29 14 -56 25 -62 25 -6 0 -18 4 -28 9 -24 12 -83 31
-112 37 -14 3 -50 11 -80 19 -30 7 -75 17 -100 21 -25 4 -56 9 -70 11 -41 7
-376 14 -382 8z"/>
</g>
</svg>
